<svg id="Layer_3" enable-background="new 0 0 64 64" height="512" viewBox="0 0 64 64" width="512" xmlns="http://www.w3.org/2000/svg"><g><path d="m62.85 47.504.014-.008-6.908-11.843-1.97-11.817c-.08-.482-.497-.836-.986-.836h-6v-3h9c.553 0 1-.447 1-1 0-3.309-2.691-6-6-6h-14c-3.309 0-6 2.691-6 6v4h-5v-3c0-.553-.447-1-1-1h-2v-4h6c.553 0 1-.447 1-1v-12c0-.553-.447-1-1-1h-18c-.553 0-1 .447-1 1v12c0 .553.447 1 1 1h6v4h-2c-.553 0-1 .447-1 1v3h-3c-.489 0-.906.354-.986.836l-1.97 11.817-6.908 11.843.014.008c-.087.149-.15.312-.15.496v14c0 .553.447 1 1 1h60c.553 0 1-.447 1-1v-14c0-.184-.063-.347-.15-.496zm-52.85 1.496h44v4h-44zm-6.259-2 5.833-10h44.852l5.833 10zm47.259-32c1.86 0 3.429 1.276 3.873 3h-7.731c.447-1.721 1.999-3 3.858-3zm-14 0h9.531c-.951 1.062-1.531 2.465-1.531 4v10h-12v-10c0-2.206 1.794-4 4-4zm-25-12h16v10h-16zm7 12h2v4h-2zm-3 6h8v2h-8zm-4.153 4h19.153v4h-2v2h20v-2h-2v-4h5.153l1.666 10h-43.639zm49.153 36h-58v-12h5v5c0 .553.447 1 1 1h46c.553 0 1-.447 1-1v-5h5z"/><circle cx="32" cy="58" r="2"/><path d="m25 5h-10c-.553 0-1 .447-1 1v4c0 .553.447 1 1 1h10c.553 0 1-.447 1-1v-4c0-.553-.447-1-1-1zm-1 4h-8v-2h8z"/><path d="m15 33h10c.553 0 1-.447 1-1v-4c0-.553-.447-1-1-1h-10c-.553 0-1 .447-1 1v4c0 .553.447 1 1 1zm1-4h8v2h-8z"/><path d="m11 39h8v2h-8z"/><path d="m21 39h8v2h-8z"/><path d="m19 43h8v2h-8z"/><path d="m8 43h8v2h-8z"/><path d="m45 39h8v2h-8z"/><path d="m35 39h8v2h-8z"/><path d="m37 43h8v2h-8z"/><path d="m48 43h8v2h-8z"/><path d="m29 43h6v2h-6z"/><path d="m36 18h2v2h-2z"/><path d="m40 18h2v2h-2z"/><path d="m35 22h8v2h-8z"/></g></svg>